<?xml version="1.0" encoding="UTF-8"?>
<svg id="Layer_1" xmlns="http://www.w3.org/2000/svg" version="1.1" viewBox="0 0 375.12 105.55">
  <!-- Generator: Adobe Illustrator 29.8.2, SVG Export Plug-In . SVG Version: 2.1.1 Build 3)  -->
  <defs>
    <style>
      .st0 {
        font-family: UniversNextPro-Bold, 'Univers Next Pro';
        font-size: 11.52px;
        font-weight: 700;
        letter-spacing: .19em;
      }

      .st0, .st1, .st2 {
        fill: #fff;
      }

      .st1 {
        font-family: Logam-Regular, Logam;
        font-size: 61.58px;
        letter-spacing: .01em;
      }
    </style>
  </defs>
  <g>
    <rect width="375.12" height="105.55"/>
    <g>
      <polygon class="st2" points="74.27 14.29 74.27 30.83 71.65 33.29 71.65 20.19 48.27 44.08 25.13 19.86 25.13 74.24 22.51 74.24 22.51 13.97 48.26 40.81 74.27 14.29"/>
      <polygon class="st2" points="87.7 21.83 87.7 74.24 85.41 74.24 85.41 25.43 48.51 64.06 27.08 41.66 26.78 38.21 48.51 60.46 85.58 21.83 87.7 21.83"/>
      <path class="st2" d="M9.08,21.5l2.47.31c1.44,2.42,8.43,7.76,9.14,9.86.32.95.29,2.3.02,3.26l-9.34-9.5v48.81h-2.29V21.5Z"/>
      <polygon class="st2" points="74.27 74.24 71.65 74.24 71.65 42.3 74.27 39.84 74.27 74.24"/>
    </g>
  </g>
  <text class="st1" transform="translate(89.61 67.69)"><tspan x="0" y="0">ARTINEZ</tspan></text>
  <text/>
  <text class="st0" transform="translate(85.69 90.94) scale(1.2 1)"><tspan x="0" y="0">NEGÓCIOS IMOBILIÁRIOS</tspan></text>
</svg>